<svg width="23" height="23" viewBox="0 0 23 23" fill="none" xmlns="http://www.w3.org/2000/svg">
<path d="M21.5635 11.7235C21.5635 10.8961 21.495 10.2924 21.3468 9.66626H11.7064V13.4005H17.3651C17.251 14.3285 16.635 15.7261 15.2659 16.6652L15.2467 16.7902L18.2948 19.1044L18.506 19.125C20.4454 17.3696 21.5635 14.7869 21.5635 11.7235Z" fill="#4285F4"/>
<path d="M11.7058 21.5626C14.478 21.5626 16.8054 20.6681 18.5053 19.1252L15.2652 16.6654C14.3982 17.2579 13.2345 17.6716 11.7058 17.6716C8.9905 17.6716 6.68596 15.9163 5.86446 13.4901L5.74405 13.5001L2.57459 15.904L2.53314 16.0169C4.22161 19.304 7.68986 21.5626 11.7058 21.5626Z" fill="#34A853"/>
<path d="M5.86505 13.4902C5.64828 12.8641 5.52284 12.1932 5.52284 11.5C5.52284 10.8068 5.64828 10.136 5.85364 9.50987L5.8479 9.37652L2.63872 6.93408L2.53372 6.98303C1.83782 8.34707 1.43851 9.87884 1.43851 11.5C1.43851 13.1212 1.83782 14.6529 2.53372 16.0169L5.86505 13.4902Z" fill="#FBBC05"/>
<path d="M11.7058 5.32831C13.6339 5.32831 14.9344 6.14448 15.676 6.82654L18.5738 4.05375C16.7941 2.43257 14.4781 1.4375 11.7058 1.4375C7.68989 1.4375 4.22162 3.69595 2.53314 6.98301L5.85308 9.50985C6.68599 7.08367 8.99054 5.32831 11.7058 5.32831Z" fill="#EB4335"/>
</svg>
