<svg width="16" height="16" viewBox="0 0 16 16" fill="none" xmlns="http://www.w3.org/2000/svg">
<path d="M13.3333 2.66663H2.66665C1.93027 2.66663 1.33331 3.26358 1.33331 3.99996V4.66663C1.33331 5.40301 1.93027 5.99996 2.66665 5.99996H13.3333C14.0697 5.99996 14.6666 5.40301 14.6666 4.66663V3.99996C14.6666 3.26358 14.0697 2.66663 13.3333 2.66663Z" stroke="black" stroke-linecap="round" stroke-linejoin="round"/>
<path d="M8 8.66663V13.3333" stroke="black" stroke-linecap="round" stroke-linejoin="round"/>
<path d="M6 10.6666L8 8.66663L10 10.6666" stroke="black" stroke-linecap="round" stroke-linejoin="round"/>
<path d="M2.66669 6V12C2.66669 12.3536 2.80716 12.6928 3.05721 12.9428C3.30726 13.1929 3.6464 13.3333 4.00002 13.3333H5.33335" stroke="black" stroke-linecap="round" stroke-linejoin="round"/>
<path d="M13.3334 6V12C13.3334 12.3536 13.1929 12.6928 12.9428 12.9428C12.6928 13.1929 12.3536 13.3333 12 13.3333H10.6667" stroke="black" stroke-linecap="round" stroke-linejoin="round"/>
</svg>
