<svg width="28" height="28" viewBox="0 0 28 28" fill="none" xmlns="http://www.w3.org/2000/svg">
<g clip-path="url(#clip0_0_283)">
<path d="M20.14 16.5934C19.7159 17.5964 19.0525 18.4802 18.2079 19.1676C17.3633 19.855 16.3632 20.325 15.295 20.5366C14.2267 20.7481 13.123 20.6948 12.0801 20.3813C11.0373 20.0677 10.0871 19.5034 9.31268 18.7378C8.53828 17.9722 7.96321 17.0286 7.63776 15.9894C7.31231 14.9501 7.24638 13.847 7.44574 12.7765C7.64509 11.7059 8.10367 10.7005 8.78137 9.84807C9.45907 8.99567 10.3353 8.32226 11.3333 7.88672" stroke="#2E3032" stroke-linecap="round" stroke-linejoin="round"/>
<path d="M20.6667 13.9999C20.6667 13.1244 20.4942 12.2575 20.1592 11.4487C19.8242 10.6399 19.3331 9.90493 18.714 9.28587C18.095 8.66682 17.3601 8.17575 16.5512 7.84072C15.7424 7.50569 14.8755 7.33325 14 7.33325V13.9999H20.6667Z" stroke="#2E3032" stroke-linecap="round" stroke-linejoin="round"/>
</g>
<defs>
<clipPath id="clip0_0_283">
<rect width="16" height="16" fill="white" transform="translate(6 6)"/>
</clipPath>
</defs>
</svg>
