<svg width="28" height="28" viewBox="0 0 28 28" fill="none" xmlns="http://www.w3.org/2000/svg">
<path d="M16 7.33325H12C11.6319 7.33325 11.3334 7.63173 11.3334 7.99992V9.33325C11.3334 9.70144 11.6319 9.99992 12 9.99992H16C16.3682 9.99992 16.6667 9.70144 16.6667 9.33325V7.99992C16.6667 7.63173 16.3682 7.33325 16 7.33325Z" stroke="#2E3032" stroke-linecap="round" stroke-linejoin="round"/>
<path d="M16.6666 8.66675H18C18.3536 8.66675 18.6927 8.80722 18.9428 9.05727C19.1928 9.30732 19.3333 9.64646 19.3333 10.0001V19.3334C19.3333 19.687 19.1928 20.0262 18.9428 20.2762C18.6927 20.5263 18.3536 20.6667 18 20.6667H9.99996C9.64634 20.6667 9.3072 20.5263 9.05715 20.2762C8.8071 20.0262 8.66663 19.687 8.66663 19.3334V10.0001C8.66663 9.64646 8.8071 9.30732 9.05715 9.05727C9.3072 8.80722 9.64634 8.66675 9.99996 8.66675H11.3333" stroke="#2E3032" stroke-linecap="round" stroke-linejoin="round"/>
<path d="M14 13.3333H16.6667" stroke="#2E3032" stroke-linecap="round" stroke-linejoin="round"/>
<path d="M14 16.6667H16.6667" stroke="#2E3032" stroke-linecap="round" stroke-linejoin="round"/>
<path d="M11.3334 13.3333H11.34" stroke="#2E3032" stroke-linecap="round" stroke-linejoin="round"/>
<path d="M11.3334 16.6667H11.34" stroke="#2E3032" stroke-linecap="round" stroke-linejoin="round"/>
</svg>
