<svg width="14" height="12" viewBox="0 0 14 12" fill="none" xmlns="http://www.w3.org/2000/svg">
<path d="M13.9958 3.8727H12.4923C11.6645 1.57526 9.43891 0 6.50377 0H1.67662V3.8727H0V5.26214H1.67662V6.71915H0V8.10859H1.67662V11.9348H6.50377C9.40512 11.9348 11.6139 10.3722 12.4627 8.10859H13.9958V6.71915H12.8006C12.8302 6.4742 12.847 6.22081 12.847 5.96742V5.93363C12.847 5.70557 12.8344 5.48174 12.8133 5.26214H14V3.8727H13.9958ZM3.02805 1.2374H6.50377C8.65761 1.2374 10.2582 2.29743 10.9973 3.86847H3.02805V1.2374ZM6.50377 10.6848H3.02805V8.10437H10.9888C10.2455 9.65007 8.64916 10.6848 6.50377 10.6848ZM11.4492 5.99698C11.4492 6.24192 11.4323 6.48265 11.3985 6.71493H3.02805V5.25791H11.4027C11.4323 5.48597 11.4492 5.72247 11.4492 5.96319V5.99698Z" fill="white"/>
</svg>
