<svg width="16" height="16" viewBox="0 0 16 16" fill="none" xmlns="http://www.w3.org/2000/svg">
<path d="M13.3334 2.66663H2.66671C1.93033 2.66663 1.33337 3.26358 1.33337 3.99996V4.66663C1.33337 5.40301 1.93033 5.99996 2.66671 5.99996H13.3334C14.0698 5.99996 14.6667 5.40301 14.6667 4.66663V3.99996C14.6667 3.26358 14.0698 2.66663 13.3334 2.66663Z" stroke="black" stroke-linecap="round" stroke-linejoin="round"/>
<path d="M8 13.3334L8 8.66671" stroke="black" stroke-linecap="round" stroke-linejoin="round"/>
<path d="M10 11.3334L8 13.3334L6 11.3334" stroke="black" stroke-linecap="round" stroke-linejoin="round"/>
<path d="M2.66663 6V12C2.66663 12.3536 2.8071 12.6928 3.05715 12.9428C3.3072 13.1929 3.64634 13.3333 3.99996 13.3333H5.33329" stroke="black" stroke-linecap="round" stroke-linejoin="round"/>
<path d="M13.3333 6V12C13.3333 12.3536 13.1928 12.6928 12.9428 12.9428C12.6927 13.1929 12.3536 13.3333 12 13.3333H10.6666" stroke="black" stroke-linecap="round" stroke-linejoin="round"/>
</svg>
