<svg width="24" height="24" viewBox="0 0 24 24" fill="none" xmlns="http://www.w3.org/2000/svg">
<path d="M12.071 13.3139L17.021 8.36388C17.1133 8.26837 17.2236 8.19219 17.3456 8.13978C17.4676 8.08737 17.5988 8.05979 17.7316 8.05863C17.8644 8.05748 17.9961 8.08278 18.119 8.13306C18.2419 8.18334 18.3535 8.25759 18.4474 8.35149C18.5413 8.44538 18.6156 8.55703 18.6658 8.67993C18.7161 8.80282 18.7414 8.9345 18.7403 9.06728C18.7391 9.20006 18.7115 9.33128 18.6591 9.45329C18.6067 9.57529 18.5305 9.68564 18.435 9.77788L12.778 15.4349C12.5905 15.6224 12.3362 15.7277 12.071 15.7277C11.8059 15.7277 11.5515 15.6224 11.364 15.4349L5.70702 9.77788C5.61151 9.68564 5.53533 9.57529 5.48292 9.45329C5.43051 9.33128 5.40292 9.20006 5.40177 9.06728C5.40062 8.9345 5.42592 8.80282 5.4762 8.67993C5.52648 8.55703 5.60073 8.44538 5.69463 8.35149C5.78852 8.25759 5.90017 8.18334 6.02307 8.13306C6.14596 8.08278 6.27764 8.05748 6.41042 8.05863C6.5432 8.05979 6.67442 8.08737 6.79643 8.13978C6.91843 8.19219 7.02877 8.26837 7.12102 8.36388L12.071 13.3139Z" fill="white"/>
</svg>
