<svg width="20" height="20" viewBox="0 0 20 20" fill="none" xmlns="http://www.w3.org/2000/svg">
<path d="M7.64168 14.1667C7.48647 14.0106 7.39935 13.7994 7.39935 13.5792C7.39935 13.3591 7.48647 13.1478 7.64168 12.9917L10.5917 10L7.64168 7.05004C7.48647 6.8939 7.39935 6.68269 7.39935 6.46254C7.39935 6.24238 7.48647 6.03117 7.64168 5.87504C7.71915 5.79693 7.81132 5.73494 7.91287 5.69263C8.01442 5.65032 8.12334 5.62854 8.23335 5.62854C8.34336 5.62854 8.45228 5.65032 8.55383 5.69263C8.65538 5.73494 8.74754 5.79693 8.82501 5.87504L12.3583 9.40837C12.4365 9.48584 12.4984 9.57801 12.5408 9.67956C12.5831 9.78111 12.6048 9.89003 12.6048 10C12.6048 10.11 12.5831 10.219 12.5408 10.3205C12.4984 10.4221 12.4365 10.5142 12.3583 10.5917L8.82501 14.1667C8.74754 14.2448 8.65538 14.3068 8.55383 14.3491C8.45228 14.3914 8.34336 14.4132 8.23335 14.4132C8.12334 14.4132 8.01442 14.3914 7.91287 14.3491C7.81132 14.3068 7.71915 14.2448 7.64168 14.1667Z" fill="#7FDF9A"/>
</svg>
