<svg width="18" height="18" viewBox="0 0 18 18" fill="none" xmlns="http://www.w3.org/2000/svg">
<g opacity="0.73">
<path d="M12.75 6.87752C12.6095 6.73783 12.4194 6.65942 12.2213 6.65942C12.0231 6.65942 11.833 6.73783 11.6925 6.87752L9.00002 9.53252L6.34502 6.87752C6.2045 6.73783 6.01441 6.65942 5.81627 6.65942C5.61813 6.65942 5.42804 6.73783 5.28752 6.87752C5.21723 6.94724 5.16143 7.03019 5.12335 7.12159C5.08528 7.21298 5.06567 7.31101 5.06567 7.41002C5.06567 7.50903 5.08528 7.60706 5.12335 7.69845C5.16143 7.78985 5.21723 7.8728 5.28752 7.94252L8.46752 11.1225C8.53724 11.1928 8.6202 11.2486 8.71159 11.2867C8.80298 11.3248 8.90101 11.3444 9.00002 11.3444C9.09903 11.3444 9.19706 11.3248 9.28846 11.2867C9.37985 11.2486 9.4628 11.1928 9.53252 11.1225L12.75 7.94252C12.8203 7.8728 12.8761 7.78985 12.9142 7.69845C12.9523 7.60706 12.9719 7.50903 12.9719 7.41002C12.9719 7.31101 12.9523 7.21298 12.9142 7.12159C12.8761 7.03019 12.8203 6.94724 12.75 6.87752Z" fill="white"/>
</g>
</svg>
