<svg width="18" height="21" viewBox="0 0 18 21" fill="none" xmlns="http://www.w3.org/2000/svg">
<path d="M17.437 7.16282C17.3388 7.22131 15.0005 8.45576 15.0005 11.1928C15.1107 14.3142 17.9513 15.4089 18 15.4089C17.9513 15.4674 17.5712 16.9001 16.4452 18.402C15.5515 19.6957 14.5597 21 13.0536 21C11.6209 21 11.1066 20.1378 9.45357 20.1378C7.67832 20.1378 7.17601 21 5.81683 21C4.3107 21 3.24539 19.6258 2.30307 18.3442C1.07884 16.6669 0.0382858 14.0347 0.00155101 11.5073C-0.023205 10.168 0.246716 8.85154 0.931899 7.73332C1.89898 6.17223 3.62552 5.1125 5.51097 5.07756C6.95561 5.03122 8.24132 6.02105 9.12296 6.02105C9.96786 6.02105 11.5475 5.07756 13.3347 5.07756C14.1061 5.07832 16.1633 5.29938 17.437 7.16282ZM9.00078 4.81016C8.74363 3.58711 9.45357 2.36406 10.1148 1.58389C10.9597 0.640392 12.2941 0 13.4449 0C13.5184 1.22305 13.0528 2.42255 12.2207 3.29616C11.474 4.23965 10.1883 4.94993 9.00078 4.81016Z" fill="black"/>
</svg>
