<svg width="13" height="12" viewBox="0 0 13 12" fill="none" xmlns="http://www.w3.org/2000/svg">
<path d="M11.7139 6.71011C11.6209 6.80383 11.5103 6.87823 11.3884 6.92899C11.2666 6.97976 11.1359 7.0059 11.0039 7.0059C10.8719 7.0059 10.7412 6.97976 10.6193 6.92899C10.4974 6.87823 10.3868 6.80383 10.2939 6.71011L7.00395 3.41017V11C7.00395 11.2652 6.89859 11.5196 6.71106 11.7071C6.52353 11.8946 6.26918 12 6.00397 12C5.73876 12 5.48441 11.8946 5.29688 11.7071C5.10934 11.5196 5.00399 11.2652 5.00399 11V3.41017L1.71406 6.71011C1.52576 6.89841 1.27037 7.00419 1.00407 7.00419C0.737775 7.00419 0.482386 6.89841 0.294086 6.71011C0.105786 6.52181 0 6.26642 0 6.00012C0 5.73383 0.105786 5.47844 0.294086 5.29014L5.29398 0.290239C5.38909 0.1992 5.50123 0.127836 5.62398 0.0802424C5.74368 0.0273384 5.8731 1.14439e-05 6.00397 1.14439e-05C6.13484 1.14439e-05 6.26426 0.0273384 6.38396 0.0802424C6.50671 0.127836 6.61885 0.1992 6.71396 0.290239L11.7139 5.29014C11.8076 5.3831 11.882 5.4937 11.9327 5.61555C11.9835 5.73741 12.0096 5.86811 12.0096 6.00012C12.0096 6.13213 11.9835 6.26283 11.9327 6.38469C11.882 6.50655 11.8076 6.61715 11.7139 6.71011Z" fill="#7FDF9A"/>
</svg>
