<svg width="24" height="24" viewBox="0 0 24 24" fill="none" xmlns="http://www.w3.org/2000/svg">
<g clip-path="url(#clip0_1621_6457)">
<circle cx="12" cy="12" r="9.5" fill="white" stroke="#E7E7E7" stroke-width="2"/>
<g clip-path="url(#clip1_1621_6457)">
<path d="M14.5 9.83317H14.0834V8.99984C14.0834 7.84984 13.15 6.9165 12 6.9165C10.85 6.9165 9.91669 7.84984 9.91669 8.99984V9.83317H9.50002C9.04169 9.83317 8.66669 10.2082 8.66669 10.6665V14.8332C8.66669 15.2915 9.04169 15.6665 9.50002 15.6665H14.5C14.9584 15.6665 15.3334 15.2915 15.3334 14.8332V10.6665C15.3334 10.2082 14.9584 9.83317 14.5 9.83317ZM12 13.5832C11.5417 13.5832 11.1667 13.2082 11.1667 12.7498C11.1667 12.2915 11.5417 11.9165 12 11.9165C12.4584 11.9165 12.8334 12.2915 12.8334 12.7498C12.8334 13.2082 12.4584 13.5832 12 13.5832ZM13.2917 9.83317H10.7084V8.99984C10.7084 8.28734 11.2875 7.70817 12 7.70817C12.7125 7.70817 13.2917 8.28734 13.2917 8.99984V9.83317Z" fill="#212121"/>
</g>
</g>
<defs>
<clipPath id="clip0_1621_6457">
<rect width="24" height="24" fill="white"/>
</clipPath>
<clipPath id="clip1_1621_6457">
<rect width="10" height="10" fill="white" transform="translate(7 6.5)"/>
</clipPath>
</defs>
</svg>
