<svg width="13" height="12" viewBox="0 0 13 12" fill="none" xmlns="http://www.w3.org/2000/svg">
<path d="M11.719 6.71278L6.71689 11.7149C6.62175 11.8059 6.50956 11.8773 6.38676 11.925C6.14319 12.025 5.87 12.025 5.62644 11.925C5.50364 11.8773 5.39144 11.8059 5.2963 11.7149L0.294214 6.71278C0.200937 6.6195 0.126945 6.50877 0.0764641 6.38689C0.0259827 6.26502 0 6.1344 0 6.00248C0 5.73607 0.105832 5.48057 0.294214 5.29219C0.482597 5.10381 0.738098 4.99797 1.00451 4.99797C1.27092 4.99797 1.52642 5.10381 1.71481 5.29219L5.00618 8.59357V1.0004C5.00618 0.735072 5.11158 0.480611 5.2992 0.292997C5.48681 0.105382 5.74127 -1.81274e-05 6.0066 -1.81274e-05C6.27192 -1.81274e-05 6.52638 0.105382 6.714 0.292997C6.90161 0.480611 7.00701 0.735072 7.00701 1.0004V8.59357L10.2984 5.29219C10.3914 5.19842 10.502 5.124 10.6239 5.07321C10.7459 5.02242 10.8766 4.99627 11.0087 4.99627C11.1407 4.99627 11.2715 5.02242 11.3934 5.07321C11.5153 5.124 11.626 5.19842 11.719 5.29219C11.8127 5.38519 11.8872 5.49584 11.938 5.61775C11.9888 5.73966 12.0149 5.87042 12.0149 6.00248C12.0149 6.13455 11.9888 6.26531 11.938 6.38722C11.8872 6.50913 11.8127 6.61978 11.719 6.71278Z" fill="#FF7070"/>
</svg>
